<mxfile host="app.diagrams.net" modified="2024-03-19T10:28:14.542Z" agent="Mozilla/5.0 (X11; Linux x86_64) AppleWebKit/537.36 (KHTML, like Gecko) Chrome/122.0.0.0 Safari/537.36" version="24.0.7" etag="01IB_f14W2jeBjygSDb6" type="github">
  <diagram name="Seite-1" id="H5LE2cm_yh6R0vGOg3OR">
    <mxGraphModel>
      <root>
        <mxCell id="0" />
        <mxCell id="1" parent="0" />
      </root>
    </mxGraphModel>
  </diagram>
</mxfile>
